<svg width="40" height="40" viewBox="0 0 40 40" fill="none" xmlns="http://www.w3.org/2000/svg">
<g clip-path="url(#clip0_112_4170)">
<path d="M9.375 25.625C8.63332 25.625 7.9083 25.8449 7.29161 26.257C6.67493 26.669 6.19428 27.2547 5.91045 27.9399C5.62662 28.6252 5.55236 29.3792 5.69706 30.1066C5.84175 30.834 6.1989 31.5022 6.72335 32.0267C7.2478 32.5511 7.91598 32.9083 8.64341 33.0529C9.37084 33.1976 10.1248 33.1234 10.8101 32.8395C11.4953 32.5557 12.081 32.0751 12.493 31.4584C12.9051 30.8417 13.125 30.1167 13.125 29.375C13.124 28.3807 12.7286 27.4275 12.0256 26.7244C11.3225 26.0214 10.3693 25.626 9.375 25.625ZM9.375 31.875C8.88055 31.875 8.3972 31.7284 7.98608 31.4537C7.57495 31.179 7.25452 30.7885 7.0653 30.3317C6.87608 29.8749 6.82658 29.3722 6.92304 28.8873C7.0195 28.4023 7.2576 27.9569 7.60723 27.6072C7.95687 27.2576 8.40232 27.0195 8.88728 26.923C9.37223 26.8266 9.87489 26.8761 10.3317 27.0653C10.7885 27.2545 11.179 27.575 11.4537 27.9861C11.7284 28.3972 11.875 28.8805 11.875 29.375C11.875 30.038 11.6116 30.6739 11.1428 31.1428C10.6739 31.6116 10.038 31.875 9.375 31.875Z" fill="white"/>
<path d="M31.875 25.625C31.1333 25.625 30.4083 25.8449 29.7916 26.257C29.1749 26.669 28.6943 27.2547 28.4105 27.9399C28.1266 28.6252 28.0524 29.3792 28.1971 30.1066C28.3418 30.834 28.6989 31.5022 29.2234 32.0267C29.7478 32.5511 30.416 32.9083 31.1434 33.0529C31.8708 33.1976 32.6248 33.1234 33.3101 32.8395C33.9953 32.5557 34.581 32.0751 34.993 31.4584C35.4051 30.8417 35.625 30.1167 35.625 29.375C35.624 28.3807 35.2286 27.4275 34.5256 26.7244C33.8225 26.0214 32.8693 25.626 31.875 25.625ZM31.875 31.875C31.3805 31.875 30.8972 31.7284 30.4861 31.4537C30.075 31.179 29.7545 30.7885 29.5653 30.3317C29.3761 29.8749 29.3266 29.3722 29.423 28.8873C29.5195 28.4023 29.7576 27.9569 30.1072 27.6072C30.4569 27.2576 30.9023 27.0195 31.3873 26.923C31.8722 26.8266 32.3749 26.8761 32.8317 27.0653C33.2885 27.2545 33.679 27.575 33.9537 27.9861C34.2284 28.3972 34.375 28.8805 34.375 29.375C34.375 30.038 34.1116 30.6739 33.6428 31.1428C33.1739 31.6116 32.538 31.875 31.875 31.875Z" fill="white"/>
<path d="M36.875 18.125H36.0963L33.985 10.735C33.8719 10.3438 33.635 9.99988 33.3099 9.75469C32.9849 9.50949 32.5891 9.37627 32.1819 9.375H25V8.75C25 8.25272 24.8025 7.77581 24.4508 7.42417C24.0992 7.07254 23.6223 6.875 23.125 6.875H1.875C1.37772 6.875 0.900805 7.07254 0.549175 7.42417C0.197544 7.77581 0 8.25272 0 8.75L0 28.75C0 28.9158 0.065848 29.0747 0.183058 29.1919C0.300269 29.3092 0.45924 29.375 0.625 29.375H3.75C3.91576 29.375 4.07473 29.3092 4.19194 29.1919C4.30915 29.0747 4.375 28.9158 4.375 28.75C4.375 28.5842 4.30915 28.4253 4.19194 28.3081C4.07473 28.1908 3.91576 28.125 3.75 28.125H1.25V8.75C1.25 8.58424 1.31585 8.42527 1.43306 8.30806C1.55027 8.19085 1.70924 8.125 1.875 8.125H23.125C23.2908 8.125 23.4497 8.19085 23.5669 8.30806C23.6842 8.42527 23.75 8.58424 23.75 8.75V13.125C23.75 13.2908 23.8158 13.4497 23.9331 13.5669C24.0503 13.6842 24.2092 13.75 24.375 13.75C24.5408 13.75 24.6997 13.6842 24.8169 13.5669C24.9342 13.4497 25 13.2908 25 13.125V10.625H32.1819C32.3177 10.6251 32.4498 10.6694 32.5582 10.7513C32.6665 10.8332 32.7453 10.9481 32.7825 11.0787L33.01 11.875H28.125C27.9592 11.875 27.8003 11.9408 27.6831 12.0581C27.5658 12.1753 27.5 12.3342 27.5 12.5V18.75C27.5 18.9158 27.5658 19.0747 27.6831 19.1919C27.8003 19.3092 27.9592 19.375 28.125 19.375H36.875C37.3723 19.375 37.8492 19.5725 38.2008 19.9242C38.5525 20.2758 38.75 20.7527 38.75 21.25V28.125H37.5C37.3342 28.125 37.1753 28.1908 37.0581 28.3081C36.9408 28.4253 36.875 28.5842 36.875 28.75C36.875 28.9158 36.9408 29.0747 37.0581 29.1919C37.1753 29.3092 37.3342 29.375 37.5 29.375H39.375C39.5408 29.375 39.6997 29.3092 39.8169 29.1919C39.9342 29.0747 40 28.9158 40 28.75V21.25C39.999 20.4215 39.6694 19.6272 39.0836 19.0414C38.4978 18.4556 37.7035 18.126 36.875 18.125ZM28.75 13.125H33.3675L34.7962 18.125H28.75V13.125Z" fill="white"/>
<path d="M26.25 28.125H15C14.8342 28.125 14.6753 28.1908 14.5581 28.3081C14.4408 28.4253 14.375 28.5842 14.375 28.75C14.375 28.9158 14.4408 29.0747 14.5581 29.1919C14.6753 29.3092 14.8342 29.375 15 29.375H26.25C26.4158 29.375 26.5747 29.3092 26.6919 29.1919C26.8092 29.0747 26.875 28.9158 26.875 28.75C26.875 28.5842 26.8092 28.4253 26.6919 28.3081C26.5747 28.1908 26.4158 28.125 26.25 28.125Z" fill="white"/>
<path d="M12.5 12.5001C12.9917 12.5003 13.4807 12.5729 13.9512 12.7158C14.03 12.7402 14.1128 12.7489 14.1949 12.7412C14.277 12.7336 14.3567 12.7097 14.4296 12.6711C14.5024 12.6325 14.5669 12.5798 14.6193 12.5162C14.6717 12.4525 14.711 12.3791 14.7349 12.3002C14.7588 12.2213 14.7669 12.1384 14.7586 12.0564C14.7504 11.9743 14.726 11.8948 14.6868 11.8222C14.6477 11.7496 14.5946 11.6855 14.5305 11.6336C14.4665 11.5816 14.3928 11.5429 14.3137 11.5195C12.982 11.1143 11.553 11.1656 10.2537 11.6652C8.95439 12.1648 7.85921 13.0842 7.14203 14.2772C6.42485 15.4703 6.12677 16.8688 6.29512 18.2507C6.46347 19.6325 7.08859 20.9185 8.07125 21.9045C8.0732 21.9102 8.0764 21.9153 8.08063 21.9195C8.08485 21.9237 8.08998 21.9269 8.09562 21.9289C9.2788 23.05 10.8531 23.6645 12.4829 23.6414C14.1126 23.6183 15.6689 22.9594 16.8199 21.8053C17.9708 20.6512 18.6254 19.0931 18.644 17.4633C18.6625 15.8334 18.0437 14.2608 16.9194 13.0808C16.8022 12.9636 16.6432 12.8978 16.4775 12.8978C16.3118 12.8978 16.1528 12.9636 16.0356 13.0808L13.7969 15.3195C12.3919 14.1883 10.7375 13.9583 9.84812 14.8483C8.95875 15.7383 9.18875 17.392 10.3194 18.797L8.555 20.5626C7.97929 19.8247 7.62262 18.9398 7.5257 18.009C7.42878 17.0781 7.5955 16.1387 8.00684 15.298C8.41819 14.4574 9.05758 13.7492 9.85206 13.2545C10.6465 12.7598 11.5641 12.4984 12.5 12.5001ZM12.5 22.5001C11.39 22.5003 10.3119 22.1289 9.4375 21.4451L11.1994 19.6833C11.9014 20.2931 12.787 20.6508 13.7156 20.6995C13.9797 20.7089 14.2429 20.6654 14.4898 20.5713C14.7367 20.4773 14.9623 20.3347 15.1531 20.152C16.0431 19.2614 15.8125 17.6083 14.6819 16.2033L16.4469 14.4376C17.0214 15.176 17.3771 16.0609 17.4733 16.9915C17.5695 17.9221 17.4024 18.861 16.991 19.7013C16.5797 20.5416 15.9406 21.2495 15.1466 21.7443C14.3526 22.2391 13.4356 22.501 12.5 22.5001ZM13.7919 17.092C14.4619 17.9839 14.6212 18.9145 14.2681 19.2683C13.915 19.622 12.9831 19.4614 12.0919 18.792L13.7919 17.092ZM10.7294 15.732C10.882 15.6005 11.0803 15.5345 11.2812 15.5483C11.8779 15.5972 12.4452 15.8282 12.9062 16.2101L11.2081 17.9083C10.5381 17.0164 10.3787 16.0858 10.7319 15.732H10.7294Z" fill="white"/>
</g>
<defs>
<clipPath id="clip0_112_4170">
<rect width="40" height="40" fill="white"/>
</clipPath>
</defs>
</svg>
