<svg width="40" height="40" viewBox="0 0 40 40" fill="none" xmlns="http://www.w3.org/2000/svg">
<path d="M31.25 19.3062C31.2518 17.5858 30.6066 15.9275 29.4425 14.6606L24.375 9.13188V1.875C24.375 1.37772 24.1775 0.900805 23.8258 0.549175C23.4742 0.197544 22.9973 0 22.5 0L17.5 0C17.0027 0 16.5258 0.197544 16.1742 0.549175C15.8225 0.900805 15.625 1.37772 15.625 1.875V9.13188L10.5575 14.6606C9.39342 15.9275 8.74823 17.5858 8.75 19.3062C8.75 19.3181 8.75625 19.3288 8.75688 19.3406C8.7575 19.3525 8.75 19.3625 8.75 19.375V36.875C8.751 37.7035 9.08055 38.4978 9.66639 39.0836C10.2522 39.6694 11.0465 39.999 11.875 40H28.125C28.9535 39.999 29.7478 39.6694 30.3336 39.0836C30.9195 38.4978 31.249 37.7035 31.25 36.875V19.375C31.25 19.3625 31.2438 19.3525 31.2431 19.3406C31.2425 19.3288 31.25 19.3181 31.25 19.3062ZM16.875 1.875C16.875 1.70924 16.9409 1.55027 17.0581 1.43306C17.1753 1.31585 17.3342 1.25 17.5 1.25H22.5C22.6658 1.25 22.8247 1.31585 22.9419 1.43306C23.0592 1.55027 23.125 1.70924 23.125 1.875V8.75H16.875V1.875ZM28.125 38.75H11.875C11.3777 38.75 10.9008 38.5525 10.5492 38.2008C10.1975 37.8492 10 37.3723 10 36.875V36.25H25C25.1658 36.25 25.3247 36.1842 25.4419 36.0669C25.5592 35.9497 25.625 35.7908 25.625 35.625C25.625 35.4592 25.5592 35.3003 25.4419 35.1831C25.3247 35.0658 25.1658 35 25 35H10V20H12.5C12.6658 20 12.8247 19.9342 12.9419 19.8169C13.0592 19.6997 13.125 19.5408 13.125 19.375C13.125 19.2092 13.0592 19.0503 12.9419 18.9331C12.8247 18.8158 12.6658 18.75 12.5 18.75H10.0288C10.1472 17.5398 10.6562 16.4011 11.4788 15.5056L16.525 10H23.475L28.5213 15.5056C29.3439 16.4011 29.8528 17.5398 29.9713 18.75H15C14.8342 18.75 14.6753 18.8158 14.5581 18.9331C14.4409 19.0503 14.375 19.2092 14.375 19.375C14.375 19.5408 14.4409 19.6997 14.5581 19.8169C14.6753 19.9342 14.8342 20 15 20H30V35H27.5C27.3342 35 27.1753 35.0658 27.0581 35.1831C26.9409 35.3003 26.875 35.4592 26.875 35.625C26.875 35.7908 26.9409 35.9497 27.0581 36.0669C27.1753 36.1842 27.3342 36.25 27.5 36.25H30V36.875C30 37.3723 29.8025 37.8492 29.4508 38.2008C29.0992 38.5525 28.6223 38.75 28.125 38.75Z" fill="white"/>
<path d="M23.5357 23.0804L21.2994 25.3166C20.7811 24.8858 20.1765 24.571 19.5263 24.3935C19.1584 24.2493 18.7565 24.2155 18.3697 24.2963C17.9829 24.3771 17.628 24.5689 17.3486 24.8483C17.0692 25.1277 16.8774 25.4826 16.7966 25.8694C16.7158 26.2562 16.7496 26.6581 16.8938 27.026C17.0715 27.6762 17.3862 28.2807 17.8169 28.7991L16.0551 30.5623C15.4045 29.7249 15.0373 28.7022 15.0066 27.6422C14.9758 26.5822 15.2832 25.54 15.8842 24.6663C16.4851 23.7926 17.3485 23.1328 18.3494 22.7824C19.3502 22.432 20.4366 22.4092 21.4513 22.7173C21.53 22.7417 21.6128 22.7504 21.6949 22.7427C21.777 22.7351 21.8568 22.7112 21.9296 22.6726C22.0025 22.634 22.067 22.5813 22.1194 22.5176C22.1718 22.454 22.2111 22.3806 22.235 22.3017C22.2589 22.2228 22.2669 22.1399 22.2587 22.0579C22.2504 21.9758 22.226 21.8962 22.1869 21.8237C22.1477 21.7511 22.0946 21.687 22.0306 21.6351C21.9666 21.5831 21.8929 21.5444 21.8138 21.521C20.4828 21.1193 19.0559 21.1728 17.7587 21.6731C16.4615 22.1734 15.3682 23.092 14.6517 24.2834C13.9352 25.4749 13.6364 26.8713 13.8026 28.2516C13.9689 29.6319 14.5906 30.9174 15.5694 31.9048C15.5744 31.9098 15.5757 31.916 15.5807 31.921C15.5857 31.926 15.5919 31.9273 15.5969 31.9316C16.7788 33.0612 18.3563 33.6827 19.991 33.6629C21.6258 33.6431 23.1877 32.9835 24.3419 31.8256C25.496 30.6677 26.1505 29.1036 26.165 27.4688C26.1795 25.834 25.5529 24.2586 24.4194 23.0804C24.3022 22.9632 24.1433 22.8974 23.9776 22.8974C23.8118 22.8974 23.6529 22.9632 23.5357 23.0804ZM21.8938 28.2766C21.9568 28.4393 21.9784 28.615 21.9566 28.7881C21.9348 28.9611 21.8702 29.126 21.7688 29.2679C21.6269 29.3693 21.462 29.4338 21.289 29.4557C21.1159 29.4775 20.9402 29.4559 20.7776 29.3929C20.3474 29.2711 19.9451 29.0667 19.5932 28.791L21.2932 27.091C21.5688 27.4432 21.7729 27.846 21.8938 28.2766ZM18.1063 26.7229C18.0433 26.5603 18.0217 26.3845 18.0435 26.2115C18.0653 26.0384 18.1299 25.8735 18.2313 25.7316C18.3836 25.5984 18.5825 25.531 18.7844 25.5441C18.9321 25.5459 19.079 25.5656 19.2219 25.6029C19.6521 25.7247 20.0544 25.9291 20.4063 26.2048L18.7063 27.9048C18.4313 27.5536 18.2275 27.1521 18.1063 26.7229ZM20.0001 32.4998C18.8899 32.5001 17.8117 32.1284 16.9376 31.4441L18.6994 29.6829C19.2177 30.1137 19.8224 30.4285 20.4726 30.606C20.7128 30.6675 20.9596 30.6994 21.2076 30.701C21.4724 30.7098 21.7364 30.6658 21.9841 30.5715C22.2318 30.4772 22.4582 30.3344 22.6501 30.1516C22.9096 29.86 23.0881 29.5054 23.168 29.1232C23.2478 28.7411 23.2261 28.3447 23.1051 27.9735C22.9274 27.3234 22.6126 26.7188 22.1819 26.2004L23.9469 24.4373C24.5215 25.1756 24.8771 26.0605 24.9733 26.9911C25.0695 27.9217 24.9024 28.8607 24.4911 29.701C24.0797 30.5412 23.4407 31.2491 22.6466 31.7439C21.8526 32.2388 20.9356 32.5006 20.0001 32.4998Z" fill="white"/>
<path d="M18.75 2.5C18.5842 2.5 18.4253 2.56585 18.3081 2.68306C18.1908 2.80027 18.125 2.95924 18.125 3.125V6.875C18.125 7.04076 18.1908 7.19973 18.3081 7.31694C18.4253 7.43415 18.5842 7.5 18.75 7.5C18.9158 7.5 19.0747 7.43415 19.1919 7.31694C19.3092 7.19973 19.375 7.04076 19.375 6.875V3.125C19.375 2.95924 19.3092 2.80027 19.1919 2.68306C19.0747 2.56585 18.9158 2.5 18.75 2.5Z" fill="white"/>
<path d="M21.25 2.5C21.0842 2.5 20.9253 2.56585 20.8081 2.68306C20.6908 2.80027 20.625 2.95924 20.625 3.125V6.875C20.625 7.04076 20.6908 7.19973 20.8081 7.31694C20.9253 7.43415 21.0842 7.5 21.25 7.5C21.4158 7.5 21.5747 7.43415 21.6919 7.31694C21.8092 7.19973 21.875 7.04076 21.875 6.875V3.125C21.875 2.95924 21.8092 2.80027 21.6919 2.68306C21.5747 2.56585 21.4158 2.5 21.25 2.5Z" fill="white"/>
</svg>
